<svg width="169" height="20" viewBox="0 0 169 20" fill="none" xmlns="http://www.w3.org/2000/svg">
<g id="Group 4">
<path id="Vector" d="M9.16 2.69994C12.04 2.69994 14.02 2.76994 15.1 2.90994C16.66 3.11994 17.61 3.85994 17.96 5.12994C18.2 5.99994 18.32 7.47994 18.32 9.54994C18.32 11.6199 18.2 13.1099 17.96 13.9799C17.61 15.2499 16.65 15.9899 15.1 16.1999C14.02 16.3399 12.05 16.4099 9.2 16.4099C6.35 16.4099 4.3 16.3399 3.22 16.1999C1.66 15.9899 0.71 15.2499 0.36 13.9799C0.12 13.1099 0 11.5999 0 9.46994C0 7.33994 0.12 5.98994 0.36 5.11994C0.71 3.84994 1.67 3.10994 3.22 2.89994C4.29 2.75994 6.27 2.68994 9.16 2.68994V2.69994ZM9.17 6.15994C7.02 6.15994 5.72 6.21994 5.28 6.32994C4.78 6.45994 4.45 6.74994 4.29 7.19994C4.13 7.64994 4.06 8.54994 4.06 9.89994C4.06 10.7099 4.1 11.2999 4.19 11.6699C4.35 12.3499 4.84 12.7299 5.66 12.8299C6.27 12.9099 7.44 12.9499 9.19 12.9499C10.82 12.9499 11.91 12.9199 12.45 12.8599C12.99 12.7999 13.39 12.6699 13.65 12.4699C13.88 12.2899 14.04 12.0199 14.13 11.6599C14.21 11.3099 14.26 10.7199 14.26 9.91994C14.26 8.95994 14.23 8.25994 14.16 7.80994C14.09 7.35994 13.98 7.01994 13.81 6.78994C13.6 6.49994 13.24 6.32994 12.75 6.25994C12.26 6.18994 11.06 6.15994 9.18 6.15994H9.17Z" fill="white"/>
<path id="Vector_2" d="M19.92 2.89014H27.04L34.02 12.8301H34.44L34.34 2.89014H38.47V16.2201H31.41L24.4 6.28014H23.96L24.05 16.2201H19.92V2.89014Z" fill="white"/>
<path id="Vector_3" d="M49.22 2.69994C52.1 2.69994 54.08 2.76994 55.16 2.90994C56.72 3.11994 57.67 3.85994 58.02 5.12994C58.26 5.99994 58.38 7.47994 58.38 9.54994C58.38 11.6199 58.26 13.1099 58.02 13.9799C57.67 15.2499 56.71 15.9899 55.16 16.1999C54.08 16.3399 52.11 16.4099 49.26 16.4099C46.41 16.4099 44.36 16.3399 43.28 16.1999C41.72 15.9899 40.77 15.2499 40.42 13.9799C40.18 13.1099 40.06 11.5999 40.06 9.46994C40.06 7.33994 40.18 5.98994 40.42 5.11994C40.77 3.84994 41.73 3.10994 43.28 2.89994C44.35 2.75994 46.33 2.68994 49.22 2.68994V2.69994ZM49.23 6.15994C47.08 6.15994 45.78 6.21994 45.34 6.32994C44.84 6.45994 44.51 6.74994 44.35 7.19994C44.19 7.64994 44.12 8.54994 44.12 9.89994C44.12 10.7099 44.16 11.2999 44.25 11.6699C44.41 12.3499 44.9 12.7299 45.72 12.8299C46.33 12.9099 47.5 12.9499 49.25 12.9499C50.88 12.9499 51.97 12.9199 52.51 12.8599C53.05 12.7999 53.45 12.6699 53.71 12.4699C53.94 12.2899 54.1 12.0199 54.19 11.6599C54.27 11.3099 54.32 10.7199 54.32 9.91994C54.32 8.95994 54.29 8.25994 54.22 7.80994C54.15 7.35994 54.04 7.01994 53.87 6.78994C53.66 6.49994 53.3 6.32994 52.81 6.25994C52.32 6.18994 51.12 6.15994 49.24 6.15994H49.23Z" fill="white"/>
<path id="Vector_4" d="M71.95 0L60.91 19.11H58.37L69.4 0H71.95Z" fill="white"/>
<path id="Vector_5" d="M71.76 11.8099H75.7C75.7 12.4699 75.83 12.8899 76.1 13.0799C76.3 13.1999 76.55 13.2799 76.86 13.2999C77.17 13.3199 78.14 13.3399 79.78 13.3499C81.5 13.3499 82.53 13.3299 82.88 13.3199C83.23 13.3099 83.5 13.2499 83.7 13.1699C84 13.0499 84.15 12.7099 84.15 12.1599C84.15 11.7599 84.04 11.4999 83.83 11.3599C83.62 11.2199 83.19 11.1499 82.54 11.1399C82.04 11.1399 80.98 11.0999 79.36 11.0199C77.7 10.9399 76.62 10.8999 76.12 10.8799C75.14 10.8499 74.39 10.7499 73.87 10.5999C73.35 10.4499 72.94 10.1999 72.64 9.84993C72.14 9.27993 71.89 8.31993 71.89 6.97993C71.89 5.47993 72.18 4.41993 72.75 3.79993C73.19 3.31993 73.86 3.00993 74.76 2.87993C75.66 2.74993 77.5 2.67993 80.28 2.67993C82.24 2.67993 83.62 2.73993 84.41 2.84993C85.63 3.01993 86.47 3.35993 86.93 3.86993C87.39 4.37993 87.61 5.23993 87.61 6.44993C87.61 6.55993 87.61 6.76993 87.61 7.06993H83.67C83.66 6.69993 83.63 6.44993 83.58 6.30993C83.53 6.16993 83.43 6.05993 83.29 5.97993C83.11 5.87993 82.81 5.80993 82.36 5.77993C81.91 5.74993 80.98 5.73993 79.55 5.73993C77.82 5.73993 76.77 5.78993 76.4 5.89993C76.03 6.00993 75.83 6.30993 75.83 6.78993C75.83 7.26993 76.02 7.54993 76.4 7.64993C76.71 7.72993 78.15 7.81993 80.71 7.88993C82.86 7.94993 84.31 8.02993 85.03 8.11993C85.75 8.20993 86.33 8.37993 86.76 8.61993C87.25 8.90993 87.59 9.30993 87.8 9.82993C88.01 10.3499 88.1 11.0799 88.1 12.0299C88.1 13.2899 87.93 14.2199 87.59 14.8299C87.34 15.2799 86.98 15.6099 86.53 15.8399C86.08 16.0699 85.44 16.2099 84.62 16.2899C83.74 16.3699 82.1 16.4099 79.71 16.4099C77.7 16.4099 76.22 16.3599 75.27 16.2499C74.32 16.1399 73.59 15.9599 73.11 15.6899C72.61 15.3999 72.26 15.0299 72.07 14.5599C71.88 14.0899 71.78 13.3799 71.78 12.4199V11.7999L71.76 11.8099Z" fill="white"/>
<path id="Vector_6" d="M89.48 2.89014H104.25V6.02014H93.49V7.94014H103.7V10.8701H93.49V13.0101H104.33V16.2101H89.49V2.89014H89.48Z" fill="white"/>
<path id="Vector_7" d="M105.6 2.89014H112.72L119.7 12.8301H120.12L120.02 2.89014H124.15V16.2201H117.09L110.08 6.28014H109.64L109.73 16.2201H105.6V2.89014Z" fill="white"/>
<path id="Vector_8" d="M126.02 16.2201V2.89014H135.64C137.35 2.89014 138.46 2.90014 138.99 2.93014C139.52 2.96014 140.07 3.03014 140.64 3.14014C141.97 3.41014 142.84 4.17014 143.25 5.41014C143.4 5.88014 143.5 6.38014 143.55 6.92014C143.6 7.46014 143.63 8.27014 143.63 9.36014C143.63 10.5501 143.6 11.4501 143.54 12.0701C143.48 12.6801 143.36 13.2401 143.19 13.7401C142.79 14.9101 141.98 15.6301 140.74 15.9101C140.16 16.0401 139.54 16.1301 138.88 16.1701C138.22 16.2101 137.15 16.2301 135.65 16.2301H126.02V16.2201ZM130.02 12.8201H135.67C136.71 12.8201 137.48 12.7901 137.97 12.7201C138.46 12.6501 138.81 12.5301 139.01 12.3601C139.23 12.1701 139.39 11.8701 139.48 11.4601C139.57 11.0501 139.62 10.4301 139.62 9.60014C139.62 8.77014 139.58 8.15014 139.5 7.73014C139.42 7.31014 139.29 6.99014 139.09 6.77014C138.87 6.53014 138.55 6.37014 138.13 6.31014C137.71 6.25014 136.88 6.21014 135.63 6.21014H130.01V12.8101L130.02 12.8201Z" fill="white"/>
<path id="Vector_9" d="M159.36 16.2201L158.22 13.9601H149.4L148.26 16.2201H143.62L150.69 2.89014H157L163.97 16.2201H159.36ZM156.79 11.0401L154.22 5.99014H153.41L150.84 11.0401H156.79Z" fill="white"/>
<path id="Vector_10" d="M164.57 2.89014H168.84V16.2201H164.57V2.89014Z" fill="white"/>
</g>
</svg>
