<svg width="21" height="21" viewBox="0 0 21 21" fill="none" xmlns="http://www.w3.org/2000/svg">
<g id="settings">
<mask id="mask0_10_792" style="mask-type:alpha" maskUnits="userSpaceOnUse" x="0" y="0" width="21" height="21">
<rect id="Bounding box" width="21" height="21" fill="#D9D9D9"/>
</mask>
<g mask="url(#mask0_10_792)">
<path id="settings_2" d="M8.09377 19.25L7.74377 16.45C7.55419 16.3771 7.37554 16.2896 7.20783 16.1875C7.04012 16.0854 6.87606 15.976 6.71564 15.8594L4.11252 16.9531L1.70627 12.7969L3.95939 11.0906C3.94481 10.9885 3.93752 10.8901 3.93752 10.7953V10.2047C3.93752 10.1099 3.94481 10.0115 3.95939 9.90938L1.70627 8.20312L4.11252 4.04688L6.71564 5.14062C6.87606 5.02396 7.04377 4.91458 7.21877 4.8125C7.39377 4.71042 7.56877 4.62292 7.74377 4.55L8.09377 1.75H12.9063L13.2563 4.55C13.4459 4.62292 13.6245 4.71042 13.7922 4.8125C13.9599 4.91458 14.124 5.02396 14.2844 5.14062L16.8875 4.04688L19.2938 8.20312L17.0406 9.90938C17.0552 10.0115 17.0625 10.1099 17.0625 10.2047V10.7953C17.0625 10.8901 17.0479 10.9885 17.0188 11.0906L19.2719 12.7969L16.8656 16.9531L14.2844 15.8594C14.124 15.976 13.9563 16.0854 13.7813 16.1875C13.6063 16.2896 13.4313 16.3771 13.2563 16.45L12.9063 19.25H8.09377ZM9.62502 17.5H11.3531L11.6594 15.1813C12.1115 15.0646 12.5307 14.8932 12.9172 14.6672C13.3037 14.4411 13.6573 14.1677 13.9781 13.8469L16.1438 14.7438L16.9969 13.2563L15.1156 11.8344C15.1886 11.6302 15.2396 11.4151 15.2688 11.1891C15.2979 10.963 15.3125 10.7333 15.3125 10.5C15.3125 10.2667 15.2979 10.037 15.2688 9.81094C15.2396 9.5849 15.1886 9.36979 15.1156 9.16563L16.9969 7.74375L16.1438 6.25625L13.9781 7.175C13.6573 6.83958 13.3037 6.55885 12.9172 6.33281C12.5307 6.10677 12.1115 5.93542 11.6594 5.81875L11.375 3.5H9.64689L9.34064 5.81875C8.88856 5.93542 8.46929 6.10677 8.08283 6.33281C7.69637 6.55885 7.34273 6.83229 7.02189 7.15313L4.85627 6.25625L4.00314 7.74375L5.88439 9.14375C5.81148 9.3625 5.76044 9.58125 5.73127 9.8C5.7021 10.0188 5.68752 10.2521 5.68752 10.5C5.68752 10.7333 5.7021 10.9594 5.73127 11.1781C5.76044 11.3969 5.81148 11.6156 5.88439 11.8344L4.00314 13.2563L4.85627 14.7438L7.02189 13.825C7.34273 14.1604 7.69637 14.4411 8.08283 14.6672C8.46929 14.8932 8.88856 15.0646 9.34064 15.1813L9.62502 17.5ZM10.5438 13.5625C11.3896 13.5625 12.1115 13.2635 12.7094 12.6656C13.3073 12.0677 13.6063 11.3458 13.6063 10.5C13.6063 9.65417 13.3073 8.93229 12.7094 8.33437C12.1115 7.73646 11.3896 7.4375 10.5438 7.4375C9.68335 7.4375 8.95783 7.73646 8.36721 8.33437C7.77658 8.93229 7.48127 9.65417 7.48127 10.5C7.48127 11.3458 7.77658 12.0677 8.36721 12.6656C8.95783 13.2635 9.68335 13.5625 10.5438 13.5625Z" fill="white"/>
</g>
</g>
</svg>
