<svg width="21" height="21" viewBox="0 0 21 21" fill="none" xmlns="http://www.w3.org/2000/svg">
<g id="fi:share-2">
<path id="Vector" d="M15.75 19.25C17.1997 19.25 18.375 18.0747 18.375 16.625C18.375 15.1753 17.1997 14 15.75 14C14.3003 14 13.125 15.1753 13.125 16.625C13.125 18.0747 14.3003 19.25 15.75 19.25Z" stroke="white" stroke-width="2" stroke-linecap="round" stroke-linejoin="round"/>
<path id="Vector_2" d="M5.25 13.125C6.69975 13.125 7.875 11.9497 7.875 10.5C7.875 9.05025 6.69975 7.875 5.25 7.875C3.80025 7.875 2.625 9.05025 2.625 10.5C2.625 11.9497 3.80025 13.125 5.25 13.125Z" stroke="white" stroke-width="2" stroke-linecap="round" stroke-linejoin="round"/>
<path id="Vector_3" d="M7.51624 11.8213L13.4925 15.3038" stroke="white" stroke-width="2" stroke-linecap="round" stroke-linejoin="round"/>
<path id="Vector_4" d="M15.75 7C17.1997 7 18.375 5.82475 18.375 4.375C18.375 2.92525 17.1997 1.75 15.75 1.75C14.3003 1.75 13.125 2.92525 13.125 4.375C13.125 5.82475 14.3003 7 15.75 7Z" stroke="white" stroke-width="2" stroke-linecap="round" stroke-linejoin="round"/>
<path id="Vector_5" d="M13.4837 5.69629L7.51624 9.17879" stroke="white" stroke-width="2" stroke-linecap="round" stroke-linejoin="round"/>
</g>
</svg>
